<svg width="26" height="26" viewBox="0 0 26 26" fill="none" xmlns="http://www.w3.org/2000/svg">
<path fill-rule="evenodd" clip-rule="evenodd" d="M9.75 3.52083C8.43541 3.52083 7.11984 3.93616 6.0125 4.76667L3.62917 6.55417C2.879 7.1168 2.4375 7.99979 2.4375 8.9375V18.2856C2.4375 20.683 5.17444 22.0515 7.09234 20.613C7.87986 20.0224 8.81444 19.7271 9.75 19.7271C10.6856 19.7271 11.6201 20.0224 12.4077 20.613L12.5125 20.6917C13.6198 21.5222 14.9354 21.9375 16.25 21.9375C17.5646 21.9375 18.8802 21.5222 19.9875 20.6917L22.3708 18.9042C23.121 18.3415 23.5625 17.4585 23.5625 16.5208V7.17272C23.5625 4.77534 20.8256 3.40687 18.9077 4.8453C18.1201 5.43594 17.1856 5.73118 16.25 5.73118C15.3144 5.73118 14.3799 5.43594 13.5923 4.8453L13.4875 4.76667C12.3802 3.93616 11.0646 3.52083 9.75 3.52083ZM6.9875 6.06667C7.57711 5.62446 8.24603 5.34155 8.9375 5.21788V18.1568C7.93814 18.2919 6.96497 18.6773 6.11734 19.313C5.2707 19.948 4.0625 19.3439 4.0625 18.2856V8.9375C4.0625 8.51127 4.26318 8.10991 4.60417 7.85417L6.9875 6.06667ZM13.3827 19.313C12.535 18.6773 11.5619 18.2919 10.5625 18.1568V5.21788C11.254 5.34155 11.9229 5.62446 12.5125 6.06667L12.6173 6.1453C13.465 6.78102 14.4381 7.16645 15.4375 7.30153V20.2405C14.746 20.1168 14.0771 19.8339 13.4875 19.3917L13.3827 19.313ZM19.0125 19.3917C18.4229 19.8339 17.754 20.1168 17.0625 20.2405V7.30153C18.0619 7.16645 19.035 6.78102 19.8827 6.1453C20.7293 5.51032 21.9375 6.11442 21.9375 7.17272V16.5208C21.9375 16.9471 21.7368 17.3484 21.3958 17.6042L19.0125 19.3917Z" fill="#2D264B"/>
</svg>
