<svg width="24" height="24" viewBox="0 0 24 24" fill="none" xmlns="http://www.w3.org/2000/svg">
<g clip-path="url(#clip0_6_390)">
<path d="M12 7.25C11.5858 7.25 11.25 7.58579 11.25 8C11.25 8.41421 11.5858 8.75 12 8.75V7.25ZM20 8.75C20.4142 8.75 20.75 8.41421 20.75 8C20.75 7.58579 20.4142 7.25 20 7.25V8.75ZM12 21.25C11.5858 21.25 11.25 21.5858 11.25 22C11.25 22.4142 11.5858 22.75 12 22.75V21.25ZM20 22.75C20.4142 22.75 20.75 22.4142 20.75 22C20.75 21.5858 20.4142 21.25 20 21.25V22.75ZM12 15.75C12.4142 15.75 12.75 15.4142 12.75 15C12.75 14.5858 12.4142 14.25 12 14.25V15.75ZM4 14.25C3.58579 14.25 3.25 14.5858 3.25 15C3.25 15.4142 3.58579 15.75 4 15.75L4 14.25ZM12 8.75L20 8.75V7.25L12 7.25V8.75ZM12 22.75H20V21.25H12V22.75ZM12 14.25L4 14.25L4 15.75L12 15.75V14.25ZM3.25 8C3.25 9.51878 4.48122 10.75 6 10.75V9.25C5.30964 9.25 4.75 8.69036 4.75 8H3.25ZM6 10.75C7.51878 10.75 8.75 9.51878 8.75 8H7.25C7.25 8.69036 6.69036 9.25 6 9.25V10.75ZM8.75 8C8.75 6.48122 7.51878 5.25 6 5.25V6.75C6.69036 6.75 7.25 7.30964 7.25 8H8.75ZM6 5.25C4.48122 5.25 3.25 6.48122 3.25 8H4.75C4.75 7.30964 5.30964 6.75 6 6.75V5.25ZM3.25 22C3.25 23.5188 4.48122 24.75 6 24.75V23.25C5.30964 23.25 4.75 22.6904 4.75 22H3.25ZM6 24.75C7.51878 24.75 8.75 23.5188 8.75 22H7.25C7.25 22.6904 6.69036 23.25 6 23.25V24.75ZM8.75 22C8.75 20.4812 7.51878 19.25 6 19.25V20.75C6.69036 20.75 7.25 21.3096 7.25 22H8.75ZM6 19.25C4.48122 19.25 3.25 20.4812 3.25 22H4.75C4.75 21.3096 5.30964 20.75 6 20.75V19.25ZM20.75 15C20.75 13.4812 19.5188 12.25 18 12.25V13.75C18.6904 13.75 19.25 14.3096 19.25 15H20.75ZM18 12.25C16.4812 12.25 15.25 13.4812 15.25 15H16.75C16.75 14.3096 17.3096 13.75 18 13.75V12.25ZM15.25 15C15.25 16.5188 16.4812 17.75 18 17.75V16.25C17.3096 16.25 16.75 15.6904 16.75 15H15.25ZM18 17.75C19.5188 17.75 20.75 16.5188 20.75 15H19.25C19.25 15.6904 18.6904 16.25 18 16.25V17.75Z" fill="#2D264B"/>
</g>
<defs>
<clipPath id="clip0_6_390">
<rect width="24" height="24" fill="white"/>
</clipPath>
</defs>
</svg>
