<svg width="26" height="26" viewBox="0 0 26 26" fill="none" xmlns="http://www.w3.org/2000/svg">
<path d="M16.5834 6.5C16.5834 8.47902 14.979 10.0833 13 10.0833V11.5833C15.8075 11.5833 18.0834 9.30745 18.0834 6.5H16.5834ZM13 10.0833C11.021 10.0833 9.41669 8.47902 9.41669 6.5H7.91669C7.91669 9.30745 10.1926 11.5833 13 11.5833V10.0833ZM9.41669 6.5C9.41669 4.52098 11.021 2.91667 13 2.91667V1.41667C10.1926 1.41667 7.91669 3.69255 7.91669 6.5H9.41669ZM13 2.91667C14.979 2.91667 16.5834 4.52098 16.5834 6.5H18.0834C18.0834 3.69255 15.8075 1.41667 13 1.41667V2.91667ZM9.75002 14.8333H16.25V13.3333H9.75002V14.8333ZM16.25 22H9.75002V23.5H16.25V22ZM9.75002 22C7.771 22 6.16669 20.3957 6.16669 18.4167H4.66669C4.66669 21.2241 6.94257 23.5 9.75002 23.5V22ZM19.8334 18.4167C19.8334 20.3957 18.229 22 16.25 22V23.5C19.0575 23.5 21.3334 21.2241 21.3334 18.4167H19.8334ZM16.25 14.8333C18.229 14.8333 19.8334 16.4376 19.8334 18.4167H21.3334C21.3334 15.6092 19.0575 13.3333 16.25 13.3333V14.8333ZM9.75002 13.3333C6.94257 13.3333 4.66669 15.6092 4.66669 18.4167H6.16669C6.16669 16.4376 7.771 14.8333 9.75002 14.8333V13.3333Z" fill="#2D264B"/>
</svg>
