<svg width="21" height="20" viewBox="0 0 21 20" fill="none" xmlns="http://www.w3.org/2000/svg">
<path d="M15.9185 12.3201C15.6595 12.5711 15.5405 12.9341 15.5995 13.2901L16.4885 18.2101C16.5635 18.6271 16.3875 19.0491 16.0385 19.2901C15.6965 19.5401 15.2415 19.5701 14.8685 19.3701L10.4395 17.0601C10.2855 16.9781 10.1145 16.9341 9.9395 16.9291H9.6685C9.5745 16.9431 9.4825 16.9731 9.3985 17.0191L4.9685 19.3401C4.7495 19.4501 4.5015 19.4891 4.2585 19.4501C3.6665 19.3381 3.2715 18.7741 3.3685 18.1791L4.2585 13.2591C4.3175 12.9001 4.1985 12.5351 3.9395 12.2801L0.328502 8.78012C0.026502 8.48712 -0.078498 8.04712 0.059502 7.65012C0.193502 7.25412 0.535502 6.96512 0.948502 6.90012L5.9185 6.17912C6.2965 6.14012 6.6285 5.91012 6.7985 5.57012L8.9885 1.08012C9.0405 0.980122 9.1075 0.888122 9.1885 0.810122L9.2785 0.740122C9.3255 0.688122 9.3795 0.645122 9.4395 0.610122L9.5485 0.570122L9.7185 0.500122H10.1395C10.5155 0.539122 10.8465 0.764122 11.0195 1.10012L13.2385 5.57012C13.3985 5.89712 13.7095 6.12412 14.0685 6.17912L19.0385 6.90012C19.4585 6.96012 19.8095 7.25012 19.9485 7.65012C20.0795 8.05112 19.9665 8.49112 19.6585 8.78012L15.9185 12.3201Z" fill="#FAFF00"/>
</svg>
